{
  "accessors": [
    {
      "bufferView": 2,
      "componentType": 5126,
      "count": 1357,
      "max": [
        -0.5697810053825378,
        0.4375210106372833,
        0.2034129947423935
      ],
      "min": [
        -1.1413400173187256,
        0.09001140296459198,
        -0.34077298641204834
      ],
      "type": "VEC3"
    },
    {
      "bufferView": 2,
      "byteOffset": 16284,
      "componentType": 5126,
      "count": 1357,
      "max": [
        0.9982578754425049,
        0.9954123497009277,
        1.0
      ],
      "min": [
        -0.9982577562332153,
        -0.9954123497009277,
        -1.0
      ],
      "type": "VEC3"
    },
    {
      "bufferView": 3,
      "componentType": 5126,
      "count": 1357,
      "max": [
        0.9959574937820435,
        0.4507559835910797,
        1.0,
        1.0
      ],
      "min": [
        -0.9954137802124023,
        -0.5684075355529785,
        -1.0,
        1.0
      ],
      "type": "VEC4"
    },
    {
      "bufferView": 1,
      "componentType": 5126,
      "count": 1357,
      "max": [
        0.9769840240478516,
        0.9889630079269409
      ],
      "min": [
        0.2760849893093109,
        0.02885350026190281
      ],
      "type": "VEC2"
    },
    {
      "bufferView": 0,
      "componentType": 5125,
      "count": 6900,
      "type": "SCALAR"
    },
    {
      "bufferView": 2,
      "byteOffset": 32568,
      "componentType": 5126,
      "count": 4983,
      "max": [
        1.1479599475860596,
        0.21542200446128845,
        0.06934530287981033
      ],
      "min": [
        -0.7931110262870789,
        -0.3766219913959503,
        -0.06934530287981033
      ],
      "type": "VEC3"
    },
    {
      "bufferView": 2,
      "byteOffset": 92364,
      "componentType": 5126,
      "count": 4983,
      "max": [
        0.9997363686561584,
        0.9960994720458984,
        0.999846875667572
      ],
      "min": [
        -0.9977580904960632,
        -0.9999306201934814,
        -0.9999183416366577
      ],
      "type": "VEC3"
    },
    {
      "bufferView": 3,
      "byteOffset": 21712,
      "componentType": 5126,
      "count": 4983,
      "max": [
        0.991396427154541,
        0.999755322933197,
        0.9999006986618042,
        1.0
      ],
      "min": [
        -0.9980811476707458,
        -0.9999810457229614,
        -0.9997650980949402,
        -1.0
      ],
      "type": "VEC4"
    },
    {
      "bufferView": 1,
      "byteOffset": 10856,
      "componentType": 5126,
      "count": 4983,
      "max": [
        0.4312080144882202,
        0.9911699891090393
      ],
      "min": [
        0.03385290130972862,
        0.004996779840439558
      ],
      "type": "VEC2"
    },
    {
      "bufferView": 0,
      "byteOffset": 27600,
      "componentType": 5125,
      "count": 28368,
      "type": "SCALAR"
    }
  ],
  "asset": {
    "extras": {
      "author": "Charlie Tinley (https://sketchfab.com/Tnkii)",
      "license": "CC-BY-4.0 (http://creativecommons.org/licenses/by/4.0/)",
      "source": "https://sketchfab.com/3d-models/harrys-wand-92c85371711a4100ad6db120ca831eb2",
      "title": "Harry's Wand"
    },
    "generator": "Sketchfab-12.66.0",
    "version": "2.0"
  },
  "bufferViews": [
    {
      "buffer": 0,
      "byteLength": 141072,
      "name": "floatBufferViews",
      "target": 34963
    },
    {
      "buffer": 0,
      "byteLength": 50720,
      "byteOffset": 141072,
      "byteStride": 8,
      "name": "floatBufferViews",
      "target": 34962
    },
    {
      "buffer": 0,
      "byteLength": 152160,
      "byteOffset": 191792,
      "byteStride": 12,
      "name": "floatBufferViews",
      "target": 34962
    },
    {
      "buffer": 0,
      "byteLength": 101440,
      "byteOffset": 343952,
      "byteStride": 16,
      "name": "floatBufferViews",
      "target": 34962
    }
  ],
  "buffers": [
    {
      "byteLength": 445392,
      "uri": "scene.bin"
    }
  ],
  "images": [
    {
      "uri": "textures/lambert1_baseColor.png"
    },
    {
      "uri": "textures/lambert1_metallicRoughness.png"
    },
    {
      "uri": "textures/lambert1_emissive.jpeg"
    },
    {
      "uri": "textures/lambert1_normal.png"
    },
    {
      "uri": "textures/blinn1_baseColor.png"
    },
    {
      "uri": "textures/blinn1_metallicRoughness.png"
    },
    {
      "uri": "textures/blinn1_emissive.jpeg"
    },
    {
      "uri": "textures/blinn1_normal.png"
    }
  ],
  "materials": [
    {
      "alphaMode": "BLEND",
      "doubleSided": true,
      "emissiveFactor": [
        1.0,
        1.0,
        1.0
      ],
      "emissiveTexture": {
        "index": 2
      },
      "name": "lambert1",
      "normalTexture": {
        "index": 3,
        "scale": 0.3431783536585366
      },
      "occlusionTexture": {
        "index": 1
      },
      "pbrMetallicRoughness": {
        "baseColorTexture": {
          "index": 0
        },
        "metallicRoughnessTexture": {
          "index": 1
        }
      }
    },
    {
      "alphaMode": "BLEND",
      "doubleSided": true,
      "emissiveFactor": [
        1.0,
        1.0,
        1.0
      ],
      "emissiveTexture": {
        "index": 6
      },
      "name": "blinn1",
      "normalTexture": {
        "index": 7
      },
      "pbrMetallicRoughness": {
        "baseColorTexture": {
          "index": 4
        },
        "metallicRoughnessTexture": {
          "index": 5
        }
      }
    }
  ],
  "meshes": [
    {
      "name": "defaultMaterial",
      "primitives": [
        {
          "attributes": {
            "NORMAL": 1,
            "POSITION": 0,
            "TANGENT": 2,
            "TEXCOORD_0": 3
          },
          "indices": 4,
          "material": 1,
          "mode": 4
        }
      ]
    },
    {
      "name": "defaultMaterial",
      "primitives": [
        {
          "attributes": {
            "NORMAL": 6,
            "POSITION": 5,
            "TANGENT": 7,
            "TEXCOORD_0": 8
          },
          "indices": 9,
          "material": 0,
          "mode": 4
        }
      ]
    }
  ],
  "nodes": [
    {
      "children": [
        1
      ],
      "matrix": [
        1.0,
        0.0,
        0.0,
        0.0,
        0.0,
        2.220446049250313e-16,
        -1.0,
        0.0,
        0.0,
        1.0,
        2.220446049250313e-16,
        0.0,
        0.0,
        0.0,
        0.0,
        1.0
      ],
      "name": "Sketchfab_model"
    },
    {
      "children": [
        2,
        4
      ],
      "matrix": [
        1.0,
        0.0,
        0.0,
        0.0,
        0.0,
        -4.371139006309477e-08,
        0.999999999999999,
        0.0,
        0.0,
        -0.999999999999999,
        -4.371139006309477e-08,
        0.0,
        0.0,
        0.0,
        0.0,
        1.0
      ],
      "name": "Collada visual scene group"
    },
    {
      "children": [
        3
      ],
      "name": "polySurface100"
    },
    {
      "mesh": 0,
      "name": "defaultMaterial"
    },
    {
      "children": [
        5
      ],
      "name": "polySurface100"
    },
    {
      "mesh": 1,
      "name": "defaultMaterial"
    }
  ],
  "samplers": [
    {
      "magFilter": 9729,
      "minFilter": 9987,
      "wrapS": 10497,
      "wrapT": 10497
    }
  ],
  "scene": 0,
  "scenes": [
    {
      "name": "Sketchfab_Scene",
      "nodes": [
        0
      ]
    }
  ],
  "textures": [
    {
      "sampler": 0,
      "source": 0
    },
    {
      "sampler": 0,
      "source": 1
    },
    {
      "sampler": 0,
      "source": 2
    },
    {
      "sampler": 0,
      "source": 3
    },
    {
      "sampler": 0,
      "source": 4
    },
    {
      "sampler": 0,
      "source": 5
    },
    {
      "sampler": 0,
      "source": 6
    },
    {
      "sampler": 0,
      "source": 7
    }
  ]
}
